<mxfile host="app.diagrams.net" modified="2021-03-30T13:21:18.619Z" agent="5.0 (Windows NT 10.0; WOW64) AppleWebKit/537.36 (KHTML, like Gecko) Chrome/89.0.4389.90 Safari/537.36" etag="QPTA0rJa9pz6ehwqFl9x" version="14.5.3" type="github" pages="2">
  <diagram id="yAWVV9cvAhEcRnJt0DdH" name="Cas_d_utilisations">
    <mxGraphModel dx="2062" dy="1122" grid="1" gridSize="10" guides="1" tooltips="1" connect="1" arrows="1" fold="1" page="1" pageScale="1" pageWidth="827" pageHeight="1169" math="0" shadow="0">
      <root>
        <mxCell id="0" />
        <mxCell id="1" parent="0" />
        <mxCell id="0C2qu2pRUaO3kjUA5W7z-32" value="" style="rounded=0;whiteSpace=wrap;html=1;" parent="1" vertex="1">
          <mxGeometry x="280" y="920" width="180" height="190" as="geometry" />
        </mxCell>
        <mxCell id="0C2qu2pRUaO3kjUA5W7z-31" value="" style="rounded=0;whiteSpace=wrap;html=1;" parent="1" vertex="1">
          <mxGeometry x="280" y="651" width="180" height="250" as="geometry" />
        </mxCell>
        <mxCell id="0C2qu2pRUaO3kjUA5W7z-28" value="" style="rounded=0;whiteSpace=wrap;html=1;" parent="1" vertex="1">
          <mxGeometry x="280" y="370" width="180" height="250" as="geometry" />
        </mxCell>
        <mxCell id="0C2qu2pRUaO3kjUA5W7z-27" value="" style="rounded=0;whiteSpace=wrap;html=1;" parent="1" vertex="1">
          <mxGeometry x="280" y="10" width="180" height="330" as="geometry" />
        </mxCell>
        <mxCell id="0C2qu2pRUaO3kjUA5W7z-1" value="Utilisateur" style="shape=umlActor;verticalLabelPosition=bottom;verticalAlign=top;html=1;" parent="1" vertex="1">
          <mxGeometry x="20" y="555" width="30" height="60" as="geometry" />
        </mxCell>
        <mxCell id="0C2qu2pRUaO3kjUA5W7z-2" value="S&#39;enregistrer" style="ellipse;whiteSpace=wrap;html=1;" parent="1" vertex="1">
          <mxGeometry x="300" y="20" width="140" height="70" as="geometry" />
        </mxCell>
        <mxCell id="0C2qu2pRUaO3kjUA5W7z-3" value="Lister les utilisateurs &quot;ami&quot;" style="ellipse;whiteSpace=wrap;html=1;" parent="1" vertex="1">
          <mxGeometry x="300" y="460" width="140" height="70" as="geometry" />
        </mxCell>
        <mxCell id="0C2qu2pRUaO3kjUA5W7z-4" value="Ajouter un autre utilisateur en tant qu&#39;&quot;ami&quot;" style="ellipse;whiteSpace=wrap;html=1;" parent="1" vertex="1">
          <mxGeometry x="300" y="380" width="140" height="70" as="geometry" />
        </mxCell>
        <mxCell id="0C2qu2pRUaO3kjUA5W7z-5" value="Se connecter" style="ellipse;whiteSpace=wrap;html=1;" parent="1" vertex="1">
          <mxGeometry x="300" y="100" width="140" height="70" as="geometry" />
        </mxCell>
        <mxCell id="0C2qu2pRUaO3kjUA5W7z-6" value="Alimenter son compte" style="ellipse;whiteSpace=wrap;html=1;" parent="1" vertex="1">
          <mxGeometry x="300" y="660" width="140" height="70" as="geometry" />
        </mxCell>
        <mxCell id="0C2qu2pRUaO3kjUA5W7z-7" value="Faire un virement à un autre utilisateur" style="ellipse;whiteSpace=wrap;html=1;" parent="1" vertex="1">
          <mxGeometry x="300" y="940" width="140" height="70" as="geometry" />
        </mxCell>
        <mxCell id="0C2qu2pRUaO3kjUA5W7z-8" value="Faire un retrait" style="ellipse;whiteSpace=wrap;html=1;" parent="1" vertex="1">
          <mxGeometry x="300" y="740" width="140" height="70" as="geometry" />
        </mxCell>
        <mxCell id="0C2qu2pRUaO3kjUA5W7z-9" value="Prélever la commission" style="ellipse;whiteSpace=wrap;html=1;" parent="1" vertex="1">
          <mxGeometry x="630" y="780" width="140" height="70" as="geometry" />
        </mxCell>
        <mxCell id="0C2qu2pRUaO3kjUA5W7z-10" value="Includes" style="endArrow=open;endSize=12;dashed=1;html=1;exitX=1;exitY=0.5;exitDx=0;exitDy=0;entryX=0;entryY=0.5;entryDx=0;entryDy=0;" parent="1" source="0C2qu2pRUaO3kjUA5W7z-6" target="0C2qu2pRUaO3kjUA5W7z-9" edge="1">
          <mxGeometry width="160" relative="1" as="geometry">
            <mxPoint x="440" y="800" as="sourcePoint" />
            <mxPoint x="600" y="800" as="targetPoint" />
          </mxGeometry>
        </mxCell>
        <mxCell id="0C2qu2pRUaO3kjUA5W7z-12" value="Includes" style="endArrow=open;endSize=12;dashed=1;html=1;exitX=1;exitY=0.5;exitDx=0;exitDy=0;entryX=0;entryY=0.5;entryDx=0;entryDy=0;" parent="1" source="0C2qu2pRUaO3kjUA5W7z-7" target="0C2qu2pRUaO3kjUA5W7z-9" edge="1">
          <mxGeometry width="160" relative="1" as="geometry">
            <mxPoint x="430" y="845" as="sourcePoint" />
            <mxPoint x="590" y="885" as="targetPoint" />
          </mxGeometry>
        </mxCell>
        <mxCell id="0C2qu2pRUaO3kjUA5W7z-13" value="Includes" style="endArrow=open;endSize=12;dashed=1;html=1;exitX=1;exitY=0.5;exitDx=0;exitDy=0;entryX=0;entryY=0.5;entryDx=0;entryDy=0;" parent="1" source="0C2qu2pRUaO3kjUA5W7z-8" target="0C2qu2pRUaO3kjUA5W7z-9" edge="1">
          <mxGeometry width="160" relative="1" as="geometry">
            <mxPoint x="430" y="935" as="sourcePoint" />
            <mxPoint x="580" y="880" as="targetPoint" />
          </mxGeometry>
        </mxCell>
        <mxCell id="0C2qu2pRUaO3kjUA5W7z-14" value="" style="endArrow=open;endFill=1;endSize=12;html=1;entryX=0;entryY=0.5;entryDx=0;entryDy=0;" parent="1" source="0C2qu2pRUaO3kjUA5W7z-1" target="0C2qu2pRUaO3kjUA5W7z-2" edge="1">
          <mxGeometry width="160" relative="1" as="geometry">
            <mxPoint x="330" y="560" as="sourcePoint" />
            <mxPoint x="490" y="560" as="targetPoint" />
          </mxGeometry>
        </mxCell>
        <mxCell id="0C2qu2pRUaO3kjUA5W7z-15" value="" style="endArrow=open;endFill=1;endSize=12;html=1;entryX=0;entryY=0.5;entryDx=0;entryDy=0;" parent="1" source="0C2qu2pRUaO3kjUA5W7z-1" target="0C2qu2pRUaO3kjUA5W7z-5" edge="1">
          <mxGeometry width="160" relative="1" as="geometry">
            <mxPoint x="80" y="493.46938775510193" as="sourcePoint" />
            <mxPoint x="310" y="240" as="targetPoint" />
          </mxGeometry>
        </mxCell>
        <mxCell id="0C2qu2pRUaO3kjUA5W7z-16" value="" style="endArrow=open;endFill=1;endSize=12;html=1;entryX=0;entryY=0.5;entryDx=0;entryDy=0;" parent="1" source="0C2qu2pRUaO3kjUA5W7z-1" target="0C2qu2pRUaO3kjUA5W7z-3" edge="1">
          <mxGeometry width="160" relative="1" as="geometry">
            <mxPoint x="80" y="498.9795918367347" as="sourcePoint" />
            <mxPoint x="310" y="330" as="targetPoint" />
          </mxGeometry>
        </mxCell>
        <mxCell id="0C2qu2pRUaO3kjUA5W7z-17" value="" style="endArrow=open;endFill=1;endSize=12;html=1;entryX=0;entryY=0.5;entryDx=0;entryDy=0;exitX=1;exitY=0.3333333333333333;exitDx=0;exitDy=0;exitPerimeter=0;" parent="1" source="0C2qu2pRUaO3kjUA5W7z-1" target="0C2qu2pRUaO3kjUA5W7z-4" edge="1">
          <mxGeometry width="160" relative="1" as="geometry">
            <mxPoint x="80" y="504.48979591836724" as="sourcePoint" />
            <mxPoint x="310" y="420" as="targetPoint" />
          </mxGeometry>
        </mxCell>
        <mxCell id="0C2qu2pRUaO3kjUA5W7z-18" value="" style="endArrow=open;endFill=1;endSize=12;html=1;entryX=0;entryY=0.5;entryDx=0;entryDy=0;" parent="1" source="0C2qu2pRUaO3kjUA5W7z-1" target="0C2qu2pRUaO3kjUA5W7z-6" edge="1">
          <mxGeometry width="160" relative="1" as="geometry">
            <mxPoint x="80" y="500" as="sourcePoint" />
            <mxPoint x="310" y="510" as="targetPoint" />
          </mxGeometry>
        </mxCell>
        <mxCell id="0C2qu2pRUaO3kjUA5W7z-19" value="" style="endArrow=open;endFill=1;endSize=12;html=1;entryX=-0.007;entryY=0.414;entryDx=0;entryDy=0;entryPerimeter=0;" parent="1" source="0C2qu2pRUaO3kjUA5W7z-1" target="0C2qu2pRUaO3kjUA5W7z-7" edge="1">
          <mxGeometry width="160" relative="1" as="geometry">
            <mxPoint x="80" y="515.5102040816328" as="sourcePoint" />
            <mxPoint x="310" y="600" as="targetPoint" />
          </mxGeometry>
        </mxCell>
        <mxCell id="0C2qu2pRUaO3kjUA5W7z-20" value="" style="endArrow=open;endFill=1;endSize=12;html=1;entryX=0;entryY=0.5;entryDx=0;entryDy=0;exitX=0.5;exitY=0.5;exitDx=0;exitDy=0;exitPerimeter=0;" parent="1" source="0C2qu2pRUaO3kjUA5W7z-1" target="0C2qu2pRUaO3kjUA5W7z-8" edge="1">
          <mxGeometry width="160" relative="1" as="geometry">
            <mxPoint x="50" y="600" as="sourcePoint" />
            <mxPoint x="309.02" y="683.98" as="targetPoint" />
          </mxGeometry>
        </mxCell>
        <mxCell id="0C2qu2pRUaO3kjUA5W7z-21" value="Se déconnecter" style="ellipse;whiteSpace=wrap;html=1;" parent="1" vertex="1">
          <mxGeometry x="300" y="180" width="140" height="70" as="geometry" />
        </mxCell>
        <mxCell id="0C2qu2pRUaO3kjUA5W7z-22" value="Modifier son profil" style="ellipse;whiteSpace=wrap;html=1;" parent="1" vertex="1">
          <mxGeometry x="300" y="260" width="140" height="70" as="geometry" />
        </mxCell>
        <mxCell id="0C2qu2pRUaO3kjUA5W7z-23" value="" style="endArrow=open;endFill=1;endSize=12;html=1;entryX=0;entryY=0.5;entryDx=0;entryDy=0;exitX=1;exitY=0.3333333333333333;exitDx=0;exitDy=0;exitPerimeter=0;" parent="1" source="0C2qu2pRUaO3kjUA5W7z-1" target="0C2qu2pRUaO3kjUA5W7z-21" edge="1">
          <mxGeometry width="160" relative="1" as="geometry">
            <mxPoint x="80" y="487.6530612244899" as="sourcePoint" />
            <mxPoint x="310" y="145" as="targetPoint" />
          </mxGeometry>
        </mxCell>
        <mxCell id="0C2qu2pRUaO3kjUA5W7z-24" value="" style="endArrow=open;endFill=1;endSize=12;html=1;entryX=0;entryY=0.5;entryDx=0;entryDy=0;exitX=1;exitY=0.3333333333333333;exitDx=0;exitDy=0;exitPerimeter=0;" parent="1" source="0C2qu2pRUaO3kjUA5W7z-1" target="0C2qu2pRUaO3kjUA5W7z-22" edge="1">
          <mxGeometry width="160" relative="1" as="geometry">
            <mxPoint x="80" y="500" as="sourcePoint" />
            <mxPoint x="310" y="225" as="targetPoint" />
          </mxGeometry>
        </mxCell>
        <mxCell id="0C2qu2pRUaO3kjUA5W7z-25" value="Supprimer un utilisateur &quot;ami&quot;" style="ellipse;whiteSpace=wrap;html=1;" parent="1" vertex="1">
          <mxGeometry x="300" y="540" width="140" height="70" as="geometry" />
        </mxCell>
        <mxCell id="0C2qu2pRUaO3kjUA5W7z-26" value="" style="endArrow=open;endFill=1;endSize=12;html=1;entryX=0;entryY=0.5;entryDx=0;entryDy=0;" parent="1" source="0C2qu2pRUaO3kjUA5W7z-1" target="0C2qu2pRUaO3kjUA5W7z-25" edge="1">
          <mxGeometry width="160" relative="1" as="geometry">
            <mxPoint x="80" y="509.6938775510205" as="sourcePoint" />
            <mxPoint x="310" y="505" as="targetPoint" />
          </mxGeometry>
        </mxCell>
        <mxCell id="0C2qu2pRUaO3kjUA5W7z-29" value="Consulter l&#39;historique de transactions" style="ellipse;whiteSpace=wrap;html=1;" parent="1" vertex="1">
          <mxGeometry x="300" y="1020" width="140" height="70" as="geometry" />
        </mxCell>
        <mxCell id="0C2qu2pRUaO3kjUA5W7z-30" value="Consulter le solde de son compte" style="ellipse;whiteSpace=wrap;html=1;" parent="1" vertex="1">
          <mxGeometry x="300" y="820" width="140" height="70" as="geometry" />
        </mxCell>
        <mxCell id="0C2qu2pRUaO3kjUA5W7z-33" value="" style="endArrow=open;endFill=1;endSize=12;html=1;entryX=0;entryY=0.5;entryDx=0;entryDy=0;" parent="1" source="0C2qu2pRUaO3kjUA5W7z-1" target="0C2qu2pRUaO3kjUA5W7z-30" edge="1">
          <mxGeometry width="160" relative="1" as="geometry">
            <mxPoint x="57" y="614.98" as="sourcePoint" />
            <mxPoint x="310" y="785" as="targetPoint" />
          </mxGeometry>
        </mxCell>
        <mxCell id="0C2qu2pRUaO3kjUA5W7z-34" value="" style="endArrow=open;endFill=1;endSize=12;html=1;entryX=0;entryY=0.5;entryDx=0;entryDy=0;exitX=0.767;exitY=0.817;exitDx=0;exitDy=0;exitPerimeter=0;" parent="1" source="0C2qu2pRUaO3kjUA5W7z-1" target="0C2qu2pRUaO3kjUA5W7z-29" edge="1">
          <mxGeometry width="160" relative="1" as="geometry">
            <mxPoint x="60" y="616.8153927732747" as="sourcePoint" />
            <mxPoint x="309.02" y="978.98" as="targetPoint" />
          </mxGeometry>
        </mxCell>
      </root>
    </mxGraphModel>
  </diagram>
  <diagram id="KkLvxfOQ_3_Sbgj7wKhj" name="diagramme_de_classes">
    <mxGraphModel dx="1178" dy="641" grid="1" gridSize="10" guides="1" tooltips="1" connect="1" arrows="1" fold="1" page="1" pageScale="1" pageWidth="827" pageHeight="1169" math="0" shadow="0">
      <root>
        <mxCell id="tRqBK_AUlnNpLzyV8w54-0" />
        <mxCell id="tRqBK_AUlnNpLzyV8w54-1" parent="tRqBK_AUlnNpLzyV8w54-0" />
        <mxCell id="ivsg-B0Qb4yIsRzgGzTZ-0" value="UserAccount" style="swimlane;fontStyle=0;childLayout=stackLayout;horizontal=1;startSize=26;fillColor=none;horizontalStack=0;resizeParent=1;resizeParentMax=0;resizeLast=0;collapsible=1;marginBottom=0;" parent="tRqBK_AUlnNpLzyV8w54-1" vertex="1">
          <mxGeometry x="300" y="122" width="140" height="208" as="geometry" />
        </mxCell>
        <mxCell id="ivsg-B0Qb4yIsRzgGzTZ-16" value="+ id : Integer" style="text;strokeColor=none;fillColor=none;align=left;verticalAlign=top;spacingLeft=4;spacingRight=4;overflow=hidden;rotatable=0;points=[[0,0.5],[1,0.5]];portConstraint=eastwest;" parent="ivsg-B0Qb4yIsRzgGzTZ-0" vertex="1">
          <mxGeometry y="26" width="140" height="26" as="geometry" />
        </mxCell>
        <mxCell id="tGmdpOcUXYrbo9x6Zt1I-0" value="+ email : String" style="text;strokeColor=none;fillColor=none;align=left;verticalAlign=top;spacingLeft=4;spacingRight=4;overflow=hidden;rotatable=0;points=[[0,0.5],[1,0.5]];portConstraint=eastwest;" vertex="1" parent="ivsg-B0Qb4yIsRzgGzTZ-0">
          <mxGeometry y="52" width="140" height="26" as="geometry" />
        </mxCell>
        <mxCell id="WYCISd5J7pwTWzu9YoAY-7" value="+ password : String" style="text;strokeColor=none;fillColor=none;align=left;verticalAlign=top;spacingLeft=4;spacingRight=4;overflow=hidden;rotatable=0;points=[[0,0.5],[1,0.5]];portConstraint=eastwest;" parent="ivsg-B0Qb4yIsRzgGzTZ-0" vertex="1">
          <mxGeometry y="78" width="140" height="26" as="geometry" />
        </mxCell>
        <mxCell id="iWeoHumM6AAYFUOoGaLV-0" value="+ firstName : String" style="text;strokeColor=none;fillColor=none;align=left;verticalAlign=top;spacingLeft=4;spacingRight=4;overflow=hidden;rotatable=0;points=[[0,0.5],[1,0.5]];portConstraint=eastwest;" parent="ivsg-B0Qb4yIsRzgGzTZ-0" vertex="1">
          <mxGeometry y="104" width="140" height="26" as="geometry" />
        </mxCell>
        <mxCell id="iWeoHumM6AAYFUOoGaLV-1" value="+ lastName : String" style="text;strokeColor=none;fillColor=none;align=left;verticalAlign=top;spacingLeft=4;spacingRight=4;overflow=hidden;rotatable=0;points=[[0,0.5],[1,0.5]];portConstraint=eastwest;" parent="ivsg-B0Qb4yIsRzgGzTZ-0" vertex="1">
          <mxGeometry y="130" width="140" height="26" as="geometry" />
        </mxCell>
        <mxCell id="tGmdpOcUXYrbo9x6Zt1I-7" value="+ address : String" style="text;strokeColor=none;fillColor=none;align=left;verticalAlign=top;spacingLeft=4;spacingRight=4;overflow=hidden;rotatable=0;points=[[0,0.5],[1,0.5]];portConstraint=eastwest;" vertex="1" parent="ivsg-B0Qb4yIsRzgGzTZ-0">
          <mxGeometry y="156" width="140" height="26" as="geometry" />
        </mxCell>
        <mxCell id="iWeoHumM6AAYFUOoGaLV-3" value="+ accountBalance : float" style="text;strokeColor=none;fillColor=none;align=left;verticalAlign=top;spacingLeft=4;spacingRight=4;overflow=hidden;rotatable=0;points=[[0,0.5],[1,0.5]];portConstraint=eastwest;" parent="ivsg-B0Qb4yIsRzgGzTZ-0" vertex="1">
          <mxGeometry y="182" width="140" height="26" as="geometry" />
        </mxCell>
        <mxCell id="co22RX8zbaftUHRl8hui-0" value="BankAccount" style="swimlane;fontStyle=0;childLayout=stackLayout;horizontal=1;startSize=26;fillColor=none;horizontalStack=0;resizeParent=1;resizeParentMax=0;resizeLast=0;collapsible=1;marginBottom=0;" parent="tRqBK_AUlnNpLzyV8w54-1" vertex="1">
          <mxGeometry x="620" y="122" width="140" height="104" as="geometry" />
        </mxCell>
        <mxCell id="co22RX8zbaftUHRl8hui-1" value="+ id: Integer" style="text;strokeColor=none;fillColor=none;align=left;verticalAlign=top;spacingLeft=4;spacingRight=4;overflow=hidden;rotatable=0;points=[[0,0.5],[1,0.5]];portConstraint=eastwest;" parent="co22RX8zbaftUHRl8hui-0" vertex="1">
          <mxGeometry y="26" width="140" height="26" as="geometry" />
        </mxCell>
        <mxCell id="co22RX8zbaftUHRl8hui-3" value="+ name : String" style="text;strokeColor=none;fillColor=none;align=left;verticalAlign=top;spacingLeft=4;spacingRight=4;overflow=hidden;rotatable=0;points=[[0,0.5],[1,0.5]];portConstraint=eastwest;" parent="co22RX8zbaftUHRl8hui-0" vertex="1">
          <mxGeometry y="52" width="140" height="26" as="geometry" />
        </mxCell>
        <mxCell id="tGmdpOcUXYrbo9x6Zt1I-1" value="+ iban : String" style="text;strokeColor=none;fillColor=none;align=left;verticalAlign=top;spacingLeft=4;spacingRight=4;overflow=hidden;rotatable=0;points=[[0,0.5],[1,0.5]];portConstraint=eastwest;" vertex="1" parent="co22RX8zbaftUHRl8hui-0">
          <mxGeometry y="78" width="140" height="26" as="geometry" />
        </mxCell>
        <mxCell id="co22RX8zbaftUHRl8hui-11" value="" style="endArrow=none;endFill=0;html=1;align=left;verticalAlign=top;entryX=-0.007;entryY=0.846;entryDx=0;entryDy=0;entryPerimeter=0;rounded=0;" parent="tRqBK_AUlnNpLzyV8w54-1" target="co22RX8zbaftUHRl8hui-1" edge="1">
          <mxGeometry x="-1" relative="1" as="geometry">
            <mxPoint x="440" y="170" as="sourcePoint" />
            <mxPoint x="550" y="570" as="targetPoint" />
          </mxGeometry>
        </mxCell>
        <mxCell id="tGmdpOcUXYrbo9x6Zt1I-10" style="edgeStyle=orthogonalEdgeStyle;rounded=0;orthogonalLoop=1;jettySize=auto;html=1;entryX=0.244;entryY=1.011;entryDx=0;entryDy=0;entryPerimeter=0;endArrow=none;endFill=0;" edge="1" parent="tRqBK_AUlnNpLzyV8w54-1" target="iWeoHumM6AAYFUOoGaLV-3">
          <mxGeometry relative="1" as="geometry">
            <mxPoint x="334" y="440" as="sourcePoint" />
          </mxGeometry>
        </mxCell>
        <mxCell id="tGmdpOcUXYrbo9x6Zt1I-11" style="rounded=0;orthogonalLoop=1;jettySize=auto;html=1;exitX=0.75;exitY=0;exitDx=0;exitDy=0;entryX=0.753;entryY=1.008;entryDx=0;entryDy=0;entryPerimeter=0;endArrow=none;endFill=0;" edge="1" parent="tRqBK_AUlnNpLzyV8w54-1" source="co22RX8zbaftUHRl8hui-24" target="iWeoHumM6AAYFUOoGaLV-3">
          <mxGeometry relative="1" as="geometry" />
        </mxCell>
        <mxCell id="co22RX8zbaftUHRl8hui-24" value="Transaction" style="swimlane;fontStyle=0;childLayout=stackLayout;horizontal=1;startSize=26;fillColor=none;horizontalStack=0;resizeParent=1;resizeParentMax=0;resizeLast=0;collapsible=1;marginBottom=0;" parent="tRqBK_AUlnNpLzyV8w54-1" vertex="1">
          <mxGeometry x="300" y="440" width="140" height="182" as="geometry" />
        </mxCell>
        <mxCell id="co22RX8zbaftUHRl8hui-25" value="+ id : Integer" style="text;strokeColor=none;fillColor=none;align=left;verticalAlign=top;spacingLeft=4;spacingRight=4;overflow=hidden;rotatable=0;points=[[0,0.5],[1,0.5]];portConstraint=eastwest;" parent="co22RX8zbaftUHRl8hui-24" vertex="1">
          <mxGeometry y="26" width="140" height="26" as="geometry" />
        </mxCell>
        <mxCell id="co22RX8zbaftUHRl8hui-26" value="+ date : Date" style="text;strokeColor=none;fillColor=none;align=left;verticalAlign=top;spacingLeft=4;spacingRight=4;overflow=hidden;rotatable=0;points=[[0,0.5],[1,0.5]];portConstraint=eastwest;" parent="co22RX8zbaftUHRl8hui-24" vertex="1">
          <mxGeometry y="52" width="140" height="26" as="geometry" />
        </mxCell>
        <mxCell id="co22RX8zbaftUHRl8hui-27" value="+ description : String" style="text;strokeColor=none;fillColor=none;align=left;verticalAlign=top;spacingLeft=4;spacingRight=4;overflow=hidden;rotatable=0;points=[[0,0.5],[1,0.5]];portConstraint=eastwest;" parent="co22RX8zbaftUHRl8hui-24" vertex="1">
          <mxGeometry y="78" width="140" height="26" as="geometry" />
        </mxCell>
        <mxCell id="iWeoHumM6AAYFUOoGaLV-5" value="+ type : Enum" style="text;strokeColor=none;fillColor=none;align=left;verticalAlign=top;spacingLeft=4;spacingRight=4;overflow=hidden;rotatable=0;points=[[0,0.5],[1,0.5]];portConstraint=eastwest;" parent="co22RX8zbaftUHRl8hui-24" vertex="1">
          <mxGeometry y="104" width="140" height="26" as="geometry" />
        </mxCell>
        <mxCell id="53arx0t99b-nOGU999e7-1" value="+ feeRate : float" style="text;strokeColor=none;fillColor=none;align=left;verticalAlign=top;spacingLeft=4;spacingRight=4;overflow=hidden;rotatable=0;points=[[0,0.5],[1,0.5]];portConstraint=eastwest;" parent="co22RX8zbaftUHRl8hui-24" vertex="1">
          <mxGeometry y="130" width="140" height="26" as="geometry" />
        </mxCell>
        <mxCell id="tGmdpOcUXYrbo9x6Zt1I-2" value="+ amount : float" style="text;strokeColor=none;fillColor=none;align=left;verticalAlign=top;spacingLeft=4;spacingRight=4;overflow=hidden;rotatable=0;points=[[0,0.5],[1,0.5]];portConstraint=eastwest;" vertex="1" parent="co22RX8zbaftUHRl8hui-24">
          <mxGeometry y="156" width="140" height="26" as="geometry" />
        </mxCell>
        <mxCell id="WYCISd5J7pwTWzu9YoAY-0" value="Contact" style="swimlane;fontStyle=0;childLayout=stackLayout;horizontal=1;startSize=26;fillColor=none;horizontalStack=0;resizeParent=1;resizeParentMax=0;resizeLast=0;collapsible=1;marginBottom=0;" parent="tRqBK_AUlnNpLzyV8w54-1" vertex="1">
          <mxGeometry x="10" y="122" width="150" height="78" as="geometry" />
        </mxCell>
        <mxCell id="WYCISd5J7pwTWzu9YoAY-3" value="+ id : Integer" style="text;strokeColor=none;fillColor=none;align=left;verticalAlign=top;spacingLeft=4;spacingRight=4;overflow=hidden;rotatable=0;points=[[0,0.5],[1,0.5]];portConstraint=eastwest;" parent="WYCISd5J7pwTWzu9YoAY-0" vertex="1">
          <mxGeometry y="26" width="150" height="26" as="geometry" />
        </mxCell>
        <mxCell id="neW0BnUQqS1TrwB_GYrX-3" value="+ name : String" style="text;strokeColor=none;fillColor=none;align=left;verticalAlign=top;spacingLeft=4;spacingRight=4;overflow=hidden;rotatable=0;points=[[0,0.5],[1,0.5]];portConstraint=eastwest;" parent="WYCISd5J7pwTWzu9YoAY-0" vertex="1">
          <mxGeometry y="52" width="150" height="26" as="geometry" />
        </mxCell>
        <mxCell id="WYCISd5J7pwTWzu9YoAY-17" value="1..*" style="text;html=1;strokeColor=none;fillColor=none;align=center;verticalAlign=middle;whiteSpace=wrap;rounded=0;" parent="tRqBK_AUlnNpLzyV8w54-1" vertex="1">
          <mxGeometry x="260" y="140" width="40" height="20" as="geometry" />
        </mxCell>
        <mxCell id="53arx0t99b-nOGU999e7-0" value="*" style="text;html=1;strokeColor=none;fillColor=none;align=center;verticalAlign=middle;whiteSpace=wrap;rounded=0;" parent="tRqBK_AUlnNpLzyV8w54-1" vertex="1">
          <mxGeometry x="150" y="185" width="40" height="20" as="geometry" />
        </mxCell>
        <mxCell id="53arx0t99b-nOGU999e7-13" value="is a contact" style="text;html=1;strokeColor=none;fillColor=none;align=center;verticalAlign=middle;whiteSpace=wrap;rounded=0;" parent="tRqBK_AUlnNpLzyV8w54-1" vertex="1">
          <mxGeometry x="250" y="110" width="40" height="20" as="geometry" />
        </mxCell>
        <mxCell id="53arx0t99b-nOGU999e7-14" value="is relation owner" style="text;html=1;strokeColor=none;fillColor=none;align=center;verticalAlign=middle;whiteSpace=wrap;rounded=0;" parent="tRqBK_AUlnNpLzyV8w54-1" vertex="1">
          <mxGeometry x="210" y="200" width="90" height="20" as="geometry" />
        </mxCell>
        <mxCell id="53arx0t99b-nOGU999e7-16" value="1" style="text;html=1;strokeColor=none;fillColor=none;align=center;verticalAlign=middle;whiteSpace=wrap;rounded=0;" parent="tRqBK_AUlnNpLzyV8w54-1" vertex="1">
          <mxGeometry x="260" y="185" width="40" height="20" as="geometry" />
        </mxCell>
        <mxCell id="53arx0t99b-nOGU999e7-17" value="*" style="text;html=1;strokeColor=none;fillColor=none;align=center;verticalAlign=middle;whiteSpace=wrap;rounded=0;" parent="tRqBK_AUlnNpLzyV8w54-1" vertex="1">
          <mxGeometry x="150" y="140" width="40" height="20" as="geometry" />
        </mxCell>
        <mxCell id="neW0BnUQqS1TrwB_GYrX-8" style="edgeStyle=orthogonalEdgeStyle;rounded=0;orthogonalLoop=1;jettySize=auto;html=1;exitX=1;exitY=0.5;exitDx=0;exitDy=0;entryX=0.5;entryY=1;entryDx=0;entryDy=0;endArrow=none;endFill=0;" parent="tRqBK_AUlnNpLzyV8w54-1" source="co22RX8zbaftUHRl8hui-27" target="co22RX8zbaftUHRl8hui-0" edge="1">
          <mxGeometry relative="1" as="geometry" />
        </mxCell>
        <mxCell id="neW0BnUQqS1TrwB_GYrX-11" value="1" style="text;html=1;strokeColor=none;fillColor=none;align=center;verticalAlign=middle;whiteSpace=wrap;rounded=0;" parent="tRqBK_AUlnNpLzyV8w54-1" vertex="1">
          <mxGeometry x="430" y="170" width="40" height="20" as="geometry" />
        </mxCell>
        <mxCell id="neW0BnUQqS1TrwB_GYrX-12" value="0..1" style="text;html=1;strokeColor=none;fillColor=none;align=center;verticalAlign=middle;whiteSpace=wrap;rounded=0;" parent="tRqBK_AUlnNpLzyV8w54-1" vertex="1">
          <mxGeometry x="650" y="226" width="40" height="20" as="geometry" />
        </mxCell>
        <mxCell id="neW0BnUQqS1TrwB_GYrX-13" value="*" style="text;html=1;strokeColor=none;fillColor=none;align=center;verticalAlign=middle;whiteSpace=wrap;rounded=0;" parent="tRqBK_AUlnNpLzyV8w54-1" vertex="1">
          <mxGeometry x="490" y="728" width="40" height="20" as="geometry" />
        </mxCell>
        <mxCell id="neW0BnUQqS1TrwB_GYrX-14" style="edgeStyle=none;rounded=0;orthogonalLoop=1;jettySize=auto;html=1;exitX=0.5;exitY=0;exitDx=0;exitDy=0;endArrow=none;endFill=0;" parent="tRqBK_AUlnNpLzyV8w54-1" source="neW0BnUQqS1TrwB_GYrX-13" target="neW0BnUQqS1TrwB_GYrX-13" edge="1">
          <mxGeometry relative="1" as="geometry" />
        </mxCell>
        <mxCell id="neW0BnUQqS1TrwB_GYrX-17" value="1..*" style="text;html=1;strokeColor=none;fillColor=none;align=center;verticalAlign=middle;whiteSpace=wrap;rounded=0;" parent="tRqBK_AUlnNpLzyV8w54-1" vertex="1">
          <mxGeometry x="580" y="170" width="40" height="20" as="geometry" />
        </mxCell>
        <mxCell id="tGmdpOcUXYrbo9x6Zt1I-8" style="edgeStyle=orthogonalEdgeStyle;rounded=0;orthogonalLoop=1;jettySize=auto;html=1;exitX=0;exitY=0.5;exitDx=0;exitDy=0;entryX=1;entryY=0.5;entryDx=0;entryDy=0;endArrow=none;endFill=0;" edge="1" parent="tRqBK_AUlnNpLzyV8w54-1" source="ivsg-B0Qb4yIsRzgGzTZ-16" target="WYCISd5J7pwTWzu9YoAY-0">
          <mxGeometry relative="1" as="geometry" />
        </mxCell>
        <mxCell id="tGmdpOcUXYrbo9x6Zt1I-9" style="edgeStyle=orthogonalEdgeStyle;rounded=0;orthogonalLoop=1;jettySize=auto;html=1;exitX=0;exitY=0.5;exitDx=0;exitDy=0;entryX=1;entryY=0.5;entryDx=0;entryDy=0;endArrow=none;endFill=0;" edge="1" parent="tRqBK_AUlnNpLzyV8w54-1" source="tGmdpOcUXYrbo9x6Zt1I-0" target="neW0BnUQqS1TrwB_GYrX-3">
          <mxGeometry relative="1" as="geometry" />
        </mxCell>
        <mxCell id="tGmdpOcUXYrbo9x6Zt1I-12" value="*" style="text;html=1;strokeColor=none;fillColor=none;align=center;verticalAlign=middle;whiteSpace=wrap;rounded=0;" vertex="1" parent="tRqBK_AUlnNpLzyV8w54-1">
          <mxGeometry x="430" y="510" width="40" height="20" as="geometry" />
        </mxCell>
        <mxCell id="tGmdpOcUXYrbo9x6Zt1I-13" value="*" style="text;html=1;strokeColor=none;fillColor=none;align=center;verticalAlign=middle;whiteSpace=wrap;rounded=0;" vertex="1" parent="tRqBK_AUlnNpLzyV8w54-1">
          <mxGeometry x="394" y="420" width="40" height="20" as="geometry" />
        </mxCell>
        <mxCell id="tGmdpOcUXYrbo9x6Zt1I-14" value="*" style="text;html=1;strokeColor=none;fillColor=none;align=center;verticalAlign=middle;whiteSpace=wrap;rounded=0;" vertex="1" parent="tRqBK_AUlnNpLzyV8w54-1">
          <mxGeometry x="300" y="423" width="40" height="20" as="geometry" />
        </mxCell>
        <mxCell id="tGmdpOcUXYrbo9x6Zt1I-16" value="beneficiary" style="text;html=1;strokeColor=none;fillColor=none;align=center;verticalAlign=middle;whiteSpace=wrap;rounded=0;" vertex="1" parent="tRqBK_AUlnNpLzyV8w54-1">
          <mxGeometry x="394" y="380" width="90" height="20" as="geometry" />
        </mxCell>
        <mxCell id="tGmdpOcUXYrbo9x6Zt1I-17" value="1" style="text;html=1;strokeColor=none;fillColor=none;align=center;verticalAlign=middle;whiteSpace=wrap;rounded=0;" vertex="1" parent="tRqBK_AUlnNpLzyV8w54-1">
          <mxGeometry x="394" y="330" width="40" height="20" as="geometry" />
        </mxCell>
        <mxCell id="tGmdpOcUXYrbo9x6Zt1I-18" value="1" style="text;html=1;strokeColor=none;fillColor=none;align=center;verticalAlign=middle;whiteSpace=wrap;rounded=0;" vertex="1" parent="tRqBK_AUlnNpLzyV8w54-1">
          <mxGeometry x="300" y="330" width="40" height="20" as="geometry" />
        </mxCell>
        <mxCell id="tGmdpOcUXYrbo9x6Zt1I-20" value="sender" style="text;html=1;strokeColor=none;fillColor=none;align=center;verticalAlign=middle;whiteSpace=wrap;rounded=0;" vertex="1" parent="tRqBK_AUlnNpLzyV8w54-1">
          <mxGeometry x="290" y="380" width="40" height="20" as="geometry" />
        </mxCell>
      </root>
    </mxGraphModel>
  </diagram>
</mxfile>
